<svg xmlns="http://www.w3.org/2000/svg" width="52" height="52" fill="none" viewBox="0 0 52 52">
  <path fill="#2196F3" d="M41.6 28.6c0-1.473-1.56-2.6-3.467-2.6-1.906 0-3.466 1.127-3.466 2.6v2.6l-4.247-1.82c1.04-.953 1.733-2.167 2.167-3.467l2.34-1.213c.866-.433 1.473-1.3 1.473-2.34V20.8c0-1.473-1.127-2.6-2.6-2.6h-.347l-.52.52v-2.253h1.734v-2.6c0-5.374-3.554-10.14-8.667-11.614C25.827.953 24.7 0 23.4 0h-1.733c-1.3 0-2.427.953-2.6 2.253-5.114 1.474-8.667 6.24-8.667 11.614v2.6h1.733v2.253l-.52-.52h-.346c-1.474 0-2.6 1.127-2.6 2.6v1.56c0 .953.52 1.907 1.473 2.34l2.34 1.213c.433 1.3 1.127 2.514 2.167 3.467L7.453 32.5c-3.466 1.56-5.72 4.94-5.72 8.753V52h43.334V26.78L41.6 31.633V28.6Zm-5.2 10.227v-7.974a4.784 4.784 0 0 0 3.467 0v3.12L36.4 38.827Zm1.733-11.094c1.04 0 1.734.52 1.734.867s-.694.867-1.734.867-1.733-.52-1.733-.867.693-.867 1.733-.867Zm-3.466 7.54-5.634 4.16c-.433.26-1.04.434-1.56.434h-2.946l.26-1.04c.086-.347.433-.694.866-.694h1.214c1.386 0 2.686-.693 3.553-1.82l2.773-3.9 1.56.694v2.166h-.086Zm-11.527 3.12-.607 2.254-.606-2.254c-.26-1.213-1.3-1.993-2.514-1.993H18.2a2.438 2.438 0 0 1-2.08-1.127l-2.6-3.64 2.687-1.213 2.513 1.387a7.61 7.61 0 0 0 7.453 0l2.514-1.387 2.686 1.213-2.6 3.64c-.52.694-1.3 1.127-2.08 1.127H25.48c-1.04 0-2.08.78-2.34 1.993Zm-2.6 1.474h-2.947c-.52 0-1.126-.174-1.56-.52l-7.54-5.46 3.38-1.474 2.774 3.9c.78 1.127 2.166 1.82 3.553 1.82h1.213c.434 0 .78.26.867.694l.26 1.04ZM34.147 20.02c.346.087.52.433.52.78v1.56c0 .347-.174.607-.52.78l-1.214.607v-2.514l1.214-1.213Zm-21.84-5.287A2.525 2.525 0 0 1 14.733 13h15.6c1.127 0 2.08.693 2.427 1.733H12.307Zm6.76-10.66v5.46H20.8V2.6c0-.52.347-.867.867-.867H23.4c.52 0 .867.347.867.867v6.933H26v-5.46c3.553 1.214 6.153 4.247 6.76 7.974-.693-.52-1.56-.78-2.427-.78h-15.6c-.866 0-1.733.26-2.426.78.606-3.727 3.206-6.76 6.76-7.974ZM10.92 23.14c-.26-.173-.52-.433-.52-.78V20.8c0-.347.26-.693.52-.78l1.213 1.213v2.514l-1.213-.607Zm2.947.52v-7.193H31.2v7.193a5.984 5.984 0 0 1-3.12 5.287l-2.6 1.386a6.252 6.252 0 0 1-5.807 0l-2.6-1.386a5.997 5.997 0 0 1-3.206-5.287Zm-10.4 17.507c0-2.6 1.3-4.94 3.38-6.414l8.233 5.98c.78.52 1.647.867 2.513.867h4.074v8.667h-2.6v-6.934h-6.24l-.694-2.773-1.733.347.607 2.426H9.533v6.934H3.467v-9.1Zm13.866 3.9V46.8h-6.066v-1.733h6.066Zm-6.066 3.466h6.066v1.734h-6.066v-1.734ZM23.4 50.267V41.6h4.073c.954 0 1.82-.26 2.514-.867l4.68-3.38v3.814l-6.5 9.1H23.4Zm19.933-18.114v18.114h-13l11.267-15.6v-.087l1.733-2.427Z"/>
  <path fill="#2196F3" d="M41.601 44.488V33.922l-7.713 10.566H41.6Zm-1.733-1.589H37.18l2.687-3.734V42.9Z"/>
</svg>
