<svg xmlns="http://www.w3.org/2000/svg" width="52" height="52" fill="none" viewBox="0 0 52 52">
  <g clip-path="url(#a)">
    <path fill="#2196F3" d="M49.969 23.383V9.465L37.836 5.053v18.33h-1.734v-20.8h-20.8v20.8H13.57V12.038h-1.734V5.42H8.37V-.253H6.635V5.42H3.17v6.618H1.435v11.345H-.298v26.473h15.6v1.891h20.8v-1.89h15.6V23.382H49.97ZM4.902 7.311h5.2v4.727h-5.2V7.311ZM3.17 13.929h8.666v9.454H3.17V13.93Zm12.133 34.036H1.435v-22.69h13.867v22.69Zm12.134 1.891H23.97v-9.454h3.466v9.454Zm6.933 0h-5.2V38.511h-6.934v11.345h-5.2V4.474H34.37v45.382Zm5.2-42.178 8.666 3.15v12.555h-1.733V12.038H44.77v11.345h-1.733V12.038h-1.734v11.345H39.57V7.678Zm5.2 40.287h-3.467v-3.782h3.467v3.782Zm5.2 0h-3.467v-5.673H39.57v5.673h-3.467v-22.69H49.97v22.69Z"/>
    <path fill="#2196F3" d="M13.569 27.162h-10.4v1.891h10.4v-1.89Zm0 3.782h-10.4v1.891h10.4v-1.89Zm0 3.783h-10.4v1.891h10.4v-1.89Zm0 3.781h-10.4v1.89h10.4v-1.89Zm6.067-30.252v5.673h5.2V8.256h-5.2Zm3.466 3.782H21.37v-1.891h1.733v1.89Zm3.466-3.782v5.673h5.2V8.256h-5.2Zm3.467 3.782h-1.733v-1.891h1.733v1.89Zm-10.399 3.78v5.673h5.2v-5.673h-5.2Zm3.466 3.782H21.37v-1.89h1.733v1.89Zm3.466-3.782v5.673h5.2v-5.673h-5.2Zm3.467 3.782h-1.733v-1.89h1.733v1.89Zm-10.399 3.782v5.673h5.2v-5.673h-5.2Zm3.466 3.782H21.37v-1.891h1.733v1.89Zm3.466-3.782v5.673h5.2v-5.673h-5.2Zm3.467 3.782h-1.733v-1.891h1.733v1.89Zm-10.399 3.78v5.673h5.2v-5.673h-5.2Zm3.466 3.782H21.37v-1.89h1.733v1.89Zm3.466-3.782v5.673h5.2v-5.673h-5.2Zm3.467 3.782h-1.733v-1.89h1.733v1.89Zm9.535-7.564h-1.734v1.891h1.733v-1.89Zm5.198 0h-3.466v1.891h3.466v-1.89Zm3.467 0h-1.733v1.891h1.733v-1.89Zm-8.665 3.782h-1.734v1.891h1.733v-1.89Zm5.198 0h-3.466v1.891h3.466v-1.89Zm3.467 0h-1.733v1.891h1.733v-1.89Zm-8.665 3.783h-1.734v1.891h1.733v-1.89Zm5.198 0h-3.466v1.891h3.466v-1.89Zm3.467 0h-1.733v1.891h1.733v-1.89Zm-8.665 3.781h-1.734v1.89h1.733v-1.89Zm5.198 0h-3.466v1.89h3.466v-1.89Zm3.467 0h-1.733v1.89h1.733v-1.89Z"/>
  </g>
  <defs>
    <clipPath id="a">
      <path fill="#fff" d="M0 0h52v52H0z"/>
    </clipPath>
  </defs>
</svg>
