<svg xmlns="http://www.w3.org/2000/svg" width="52" height="52" fill="none" viewBox="0 0 52 52">
  <g clip-path="url(#a)">
    <path fill="#2196F3" d="M51.05 18.714c-1.13-.585-2.831-.401-3.9 1.383l-.009.016-3.946 6.86a2.73 2.73 0 0 0-3.396.753c-.282.363-1.216 1.605-2.204 2.92-.541.722-1.083 1.443-1.501 1.997a1.016 1.016 0 0 0 1.621 1.224c.42-.556.962-1.278 1.504-2 .94-1.25 1.91-2.544 2.182-2.893a.702.702 0 0 1 .972-.125c.219.17.207.587-.035 1.24-.862 2.321-1.933 4.641-2.938 6.365a1.016 1.016 0 0 0 1.754 1.024c1.062-1.82 2.187-4.256 3.088-6.683.313-.842.37-1.515.278-2.053l4.377-7.608c.354-.587.82-.823 1.22-.616.275.142.507.507.261 1.069-.296.654-.934 2.274-1.741 4.324-1.068 2.713-2.397 6.09-3.52 8.717-1.368 3.201-1.895 3.974-4.338 6.364L36.886 44.8a1.02 1.02 0 0 0-.276.969l1.357 5.506.005.02a.177.177 0 0 1-.05.173h-7.937c-.754 0-.916-.215-1.085-.672-1.992-5.396.063-8.493 2.076-10.588A1.016 1.016 0 0 0 29.51 38.8c-1.483 1.544-2.464 3.12-2.992 4.807a10.593 10.593 0 0 0-.875-2.013c-1.38-2.457-3.624-4.258-5.427-5.705-1.048-.842-2.039-1.637-2.596-2.353-.272-.348-1.242-1.64-2.18-2.89a394.372 394.372 0 0 0-2.205-2.921 2.73 2.73 0 0 0-3.395-.752l-3.947-6.861-.009-.016c-1.068-1.784-2.77-1.968-3.9-1.383-1.138.591-1.91 2.05-1.184 3.698l.004.01c.196.43.59 1.415.91 2.224a1.016 1.016 0 1 0 1.888-.75c-.493-1.243-.777-1.935-.946-2.308-.246-.562-.013-.927.261-1.069.4-.207.867.03 1.22.616l4.377 7.608c-.09.538-.034 1.212.278 2.053.901 2.427 2.027 4.862 3.089 6.683a1.015 1.015 0 1 0 1.754-1.024c-1.006-1.724-2.077-4.044-2.939-6.366-.242-.652-.254-1.07-.034-1.24a.702.702 0 0 1 .971.126 389.41 389.41 0 0 1 2.182 2.893c.988 1.314 1.92 2.556 2.202 2.918.704.904 1.784 1.771 2.928 2.689 3.654 2.933 7.797 6.258 5.189 13.322-.169.457-.33.672-1.084.672h-7.937a.177.177 0 0 1-.05-.173.451.451 0 0 0 .005-.02l1.356-5.506a1.016 1.016 0 0 0-.276-.97l-3.893-3.807c-2.442-2.39-2.97-3.163-4.338-6.364-.28-.657-.597-1.414-.939-2.249a1.015 1.015 0 1 0-1.879.77c.35.857.662 1.602.951 2.278 1.476 3.452 2.146 4.435 4.785 7.017l3.478 3.402-1.215 4.935a2.222 2.222 0 0 0 .385 1.903 2.03 2.03 0 0 0 1.616.815h7.95c1.515 0 2.493-.654 2.99-2 .188-.508.347-1.007.479-1.498.13.493.29.992.476 1.499.497 1.345 1.475 1.999 2.99 1.999h7.95c.63 0 1.22-.297 1.616-.815a2.222 2.222 0 0 0 .386-1.903l-1.216-4.935 3.478-3.402c2.639-2.582 3.31-3.565 4.785-7.017 1.135-2.655 2.47-6.046 3.542-8.772.768-1.948 1.43-3.63 1.704-4.235l.004-.01c.727-1.647-.045-3.106-1.184-3.696Z"/>
    <path fill="#2196F3" d="M5.351 28.521a1.015 1.015 0 1 0-2.032 0 1.015 1.015 0 0 0 2.032 0Zm28.331 6.959a1.015 1.015 0 1 0-.001 2.03 1.015 1.015 0 0 0 .002-2.03h-.001ZM10.273 18.328h9.259c-.08.426-.12.862-.12 1.306v1.741c0 .561.454 1.016 1.015 1.016h12.185c.56 0 1.015-.455 1.015-1.016v-1.74c0-.445-.041-.881-.12-1.307h9.26c.56 0 1.015-.454 1.015-1.015v-1.741a7.07 7.07 0 0 0-3.075-5.849c.296-.6.464-1.273.464-1.986V5.996a4.502 4.502 0 0 0-4.497-4.498 4.502 4.502 0 0 0-4.497 4.498v1.74c0 .715.168 1.39.465 1.99a7.178 7.178 0 0 0-1.626 1.559v-1.226A4.503 4.503 0 0 0 26.52 5.56a4.502 4.502 0 0 0-4.497 4.498v1.226a7.177 7.177 0 0 0-1.625-1.559 4.47 4.47 0 0 0 .465-1.99v-1.74a4.502 4.502 0 0 0-4.497-4.498 4.502 4.502 0 0 0-4.497 4.498v1.74c0 .714.167 1.388.463 1.987a7.068 7.068 0 0 0-3.074 5.849v1.74c0 .561.455 1.016 1.016 1.016Zm21.324 2.032H21.442v-.726c0-1.718.903-3.338 2.34-4.27a4.472 4.472 0 0 0 2.737.933c1.03 0 1.98-.349 2.738-.933.22.14.426.297.618.465a.965.965 0 0 0 .101.091 5.05 5.05 0 0 1 1.62 3.714v.726Zm10.154-4.788v.725h-8.953a7.068 7.068 0 0 0-1.129-1.561 5.12 5.12 0 0 1 2.27-3.433 4.473 4.473 0 0 0 2.735.932c1.03 0 1.979-.35 2.738-.934a5.053 5.053 0 0 1 2.339 4.27Zm-7.543-9.576a2.47 2.47 0 0 1 2.466-2.467 2.47 2.47 0 0 1 2.466 2.467v1.74a2.47 2.47 0 0 1-2.466 2.468 2.47 2.47 0 0 1-2.466-2.467V5.996Zm-10.155 4.063a2.47 2.47 0 0 1 2.466-2.467 2.47 2.47 0 0 1 2.466 2.467v1.74a2.47 2.47 0 0 1-2.466 2.467 2.47 2.47 0 0 1-2.466-2.466v-1.742ZM13.9 5.996a2.47 2.47 0 0 1 2.466-2.467 2.47 2.47 0 0 1 2.466 2.467v1.74a2.47 2.47 0 0 1-2.466 2.468A2.47 2.47 0 0 1 13.9 7.736v-1.74Zm-2.611 9.576a5.05 5.05 0 0 1 2.34-4.27 4.472 4.472 0 0 0 2.737.933 4.473 4.473 0 0 0 2.736-.931 5.122 5.122 0 0 1 2.269 3.431 7.061 7.061 0 0 0-1.13 1.562h-8.952v-.725Z"/>
  </g>
  <defs>
    <clipPath id="a">
      <path fill="#fff" d="M0 0h52v52H0z"/>
    </clipPath>
  </defs>
</svg>
