<svg xmlns="http://www.w3.org/2000/svg" width="52" height="52" fill="none" viewBox="0 0 52 52">
  <g clip-path="url(#a)">
    <path fill="#fff" d="M0 0h52v52H0z"/>
    <path fill="#2196F3" d="M39.203 23.357a2.031 2.031 0 1 0 0-4.062 2.031 2.031 0 0 0 0 4.062Z"/>
    <path fill="#2196F3" d="M43.875 4.063h-2.64V2.03a2.031 2.031 0 1 0-4.063 0v2.031H27.93v-2.03a2.031 2.031 0 1 0-4.063 0v2.03h-9.14v-2.03a2.031 2.031 0 1 0-4.063 0v2.03H8.125C3.645 4.063 0 7.707 0 12.188v31.688C0 48.355 3.645 52 8.125 52h15.54a2.031 2.031 0 0 0 0-4.063H8.124a4.067 4.067 0 0 1-4.063-4.062V12.187a4.067 4.067 0 0 1 4.063-4.062h2.54v2.031a2.031 2.031 0 1 0 4.062 0V8.125h9.14v2.031a2.031 2.031 0 1 0 4.063 0V8.125h9.242v2.031a2.031 2.031 0 1 0 4.062 0V8.125h2.641a4.067 4.067 0 0 1 4.063 4.063v11.578a2.031 2.031 0 1 0 4.062 0V12.188c0-4.48-3.645-8.126-8.125-8.126Z"/>
    <path fill="#2196F3" d="M39.71 27.422c-6.775 0-12.288 5.514-12.288 12.291 0 6.778 5.513 12.292 12.289 12.292S52 46.49 52 39.713s-5.513-12.291-12.29-12.291Zm0 20.52c-4.535 0-8.226-3.692-8.226-8.229 0-4.537 3.69-8.228 8.227-8.228 4.536 0 8.227 3.691 8.227 8.228s-3.691 8.228-8.227 8.228Z"/>
    <path fill="#2196F3" d="M42.668 37.68h-.914v-2.132a2.031 2.031 0 1 0-4.063 0v4.164c0 1.122.91 2.031 2.032 2.031h2.945a2.031 2.031 0 0 0 0-4.062ZM30.379 23.357a2.031 2.031 0 1 0 0-4.062 2.031 2.031 0 0 0 0 4.062Zm-8.848 8.838a2.031 2.031 0 1 0 0-4.062 2.031 2.031 0 0 0 0 4.062Zm-8.847-8.838a2.031 2.031 0 1 0 0-4.062 2.031 2.031 0 0 0 0 4.062Zm0 8.838a2.031 2.031 0 1 0 0-4.062 2.031 2.031 0 0 0 0 4.062Zm0 8.837a2.031 2.031 0 1 0 0-4.062 2.031 2.031 0 0 0 0 4.062Zm8.847 0a2.031 2.031 0 1 0 0-4.062 2.031 2.031 0 0 0 0 4.062Zm0-17.675a2.031 2.031 0 1 0 0-4.062 2.031 2.031 0 0 0 0 4.062Z"/>
  </g>
  <defs>
    <clipPath id="a">
      <path fill="#fff" d="M0 0h52v52H0z"/>
    </clipPath>
  </defs>
</svg>
